<svg xmlns="http://www.w3.org/2000/svg" viewBox="0 0 512 512" width="512" height="512" role="img" aria-label="Noveditor">
  <title>Noveditor app icon</title>
  <defs>
    <linearGradient id="kbg" x1="36" y1="16" x2="476" y2="496" gradientUnits="userSpaceOnUse">
      <stop offset="0" stop-color="#8447F0"></stop><stop offset="0.52" stop-color="#BE1AD0"></stop><stop offset="1" stop-color="#E0444E"></stop>
    </linearGradient>
    <radialGradient id="sheen" cx="0.28" cy="0.2" r="0.85">
      <stop offset="0" stop-color="#ffffff" stop-opacity="0.22"></stop><stop offset="1" stop-color="#ffffff" stop-opacity="0"></stop>
    </radialGradient>
    <linearGradient id="vig" x1="0" y1="0" x2="0" y2="512" gradientUnits="userSpaceOnUse">
      <stop offset="0.5" stop-color="#1c0626" stop-opacity="0"></stop><stop offset="1" stop-color="#1c0626" stop-opacity="0.3"></stop>
    </linearGradient>
    <filter id="soft" x="-30%" y="-30%" width="160%" height="160%" color-interpolation-filters="sRGB">
      <feDropShadow dx="0" dy="10" stdDeviation="16" flood-color="#380d52" flood-opacity="0.42"></feDropShadow>
    </filter>
  </defs>
  <rect width="512" height="512" rx="114" fill="url(#kbg)"></rect><rect width="512" height="512" rx="114" fill="url(#sheen)"></rect><rect width="512" height="512" rx="114" fill="url(#vig)"></rect>
  
    <g filter="url(#soft)"><rect x="104" y="138" width="304" height="236" rx="28" fill="#FBFAF5"></rect></g>
    <path d="M168.04 216L152.84 216L152.84 215.07L157.66 212.69L157.66 181.08L152.90 178.65L152.90 177.72L162.88 177.72L185.26 204.17L185.26 180.91L179 178.65L179 177.72L194.08 177.72L194.08 178.65L189.32 180.97L189.32 216.29L186.31 216.29L161.72 187.41L161.72 212.75L168.04 215.07L168.04 216ZM212.70 216.58L212.70 216.58Q208.75 216.58 205.71 214.72Q202.66 212.87 200.98 209.76Q199.30 206.66 199.30 202.83L199.30 202.83Q199.30 199.01 200.98 195.90Q202.66 192.80 205.71 190.94Q208.75 189.09 212.70 189.09L212.70 189.09Q216.70 189.09 219.72 190.94Q222.73 192.80 224.41 195.90Q226.10 199.01 226.10 202.83L226.10 202.83Q226.10 206.66 224.41 209.76Q222.73 212.87 219.72 214.72Q216.70 216.58 212.70 216.58ZM213.39 213.85L213.39 213.85Q215.37 213.85 216.61 212.46Q217.86 211.07 218.44 208.81Q219.02 206.55 219.02 203.99L219.02 203.99Q219.02 200.86 218.29 198.05Q217.57 195.24 216.06 193.50Q214.55 191.76 212.12 191.76L212.12 191.76Q210.15 191.76 208.87 193.15Q207.59 194.54 206.98 196.80Q206.38 199.06 206.38 201.62L206.38 201.62Q206.38 204.75 207.10 207.53Q207.83 210.32 209.39 212.09Q210.96 213.85 213.39 213.85ZM243.09 216L241.29 216L230.45 192.28L226.73 190.60L226.73 189.67L242.05 189.67L242.05 190.60L237.75 192.34L237.75 192.57L244.37 206.84L244.60 206.84L250.46 192.86L250.46 192.57L246.57 190.60L246.57 189.67L257.94 189.67L257.94 190.60L253.76 192.63L243.09 216ZM271.28 216.58L271.28 216.58Q265.48 216.58 262.08 213.16Q258.69 209.74 258.69 204.05L258.69 204.05Q258.69 199.64 260.55 196.28Q262.40 192.92 265.45 191.00Q268.49 189.09 272.21 189.09L272.21 189.09Q276.85 189.09 279.46 192.28Q282.07 195.47 282.12 201.27L282.12 201.27L281.89 201.56L265.19 201.56Q265.19 204.17 266.12 206.34Q267.04 208.52 269.13 209.82Q271.22 211.13 274.64 211.13L274.64 211.13Q276.27 211.13 278.12 210.66Q279.98 210.20 282.01 209.10L282.01 209.10L282.18 209.10L282.18 209.91Q280.79 212.75 277.95 214.67Q275.11 216.58 271.28 216.58ZM271.05 191.70L271.05 191.70Q268.73 191.70 267.22 193.61Q265.71 195.53 265.30 198.95L265.30 198.95L276.50 198.95Q275.98 194.95 274.58 193.32Q273.19 191.70 271.05 191.70ZM300.74 216L286.71 216L286.71 215.07L290.53 213.22L290.53 179.11L286.88 176.27L286.88 175.69L296.68 172.50L297.20 172.50L297.20 213.22L300.74 215.07L300.74 216Z" fill="#2A2440"></path>
    <path d="M150 236 H362" stroke="#E7E1F0" stroke-width="5" stroke-linecap="round"></path>
    <path d="M150 274 H352" stroke="#D2CADF" stroke-width="12" stroke-linecap="round"></path>
    <path d="M150 304 H300" stroke="#D2CADF" stroke-width="12" stroke-linecap="round"></path>
    <path d="M150 334 H338" stroke="#D2CADF" stroke-width="12" stroke-linecap="round"></path>
    <path d="M316 286 v36" stroke="#FF7A2F" stroke-width="8" stroke-linecap="round"></path>
</svg>