<svg xmlns="http://www.w3.org/2000/svg" viewBox="0 0 512 512" width="512" height="512" role="img" aria-label="Noveditor">
  <title>Noveditor</title>
  <defs>
    <linearGradient id="kbg" x1="36" y1="16" x2="476" y2="496" gradientUnits="userSpaceOnUse">
      <stop offset="0" stop-color="#8447F0"></stop><stop offset="0.52" stop-color="#BE1AD0"></stop><stop offset="1" stop-color="#E0444E"></stop>
    </linearGradient>
    <radialGradient id="sheen" cx="0.28" cy="0.2" r="0.85">
      <stop offset="0" stop-color="#ffffff" stop-opacity="0.22"></stop><stop offset="1" stop-color="#ffffff" stop-opacity="0"></stop>
    </radialGradient>
    <linearGradient id="vig" x1="0" y1="0" x2="0" y2="512" gradientUnits="userSpaceOnUse">
      <stop offset="0.5" stop-color="#1c0626" stop-opacity="0"></stop><stop offset="1" stop-color="#1c0626" stop-opacity="0.3"></stop>
    </linearGradient>
    <filter id="soft" x="-30%" y="-30%" width="160%" height="160%" color-interpolation-filters="sRGB">
      <feDropShadow dx="0" dy="8" stdDeviation="12" flood-color="#380d52" flood-opacity="0.4"></feDropShadow>
    </filter>
  </defs>
  <rect width="512" height="512" rx="114" fill="url(#kbg)"></rect><rect width="512" height="512" rx="114" fill="url(#sheen)"></rect><rect width="512" height="512" rx="114" fill="url(#vig)"></rect>
  
  <g filter="url(#soft)">
    <path d="M256 168 C214 142 168 138 132 146 C124 148 120 154 120 162 L120 352 C120 360 126 366 134 364 C168 357 214 360 256 384 Z" fill="#FBFAF5"></path>
    <path d="M256 168 C298 142 344 138 380 146 C388 148 392 154 392 162 L392 352 C392 360 386 366 378 364 C344 357 298 360 256 384 Z" fill="#EDE7F5"></path>
    <path d="M256 168 L256 384" stroke="#CFC6E0" stroke-width="8" stroke-linecap="round"></path>
  </g>
  <g stroke="#B9AED2" stroke-width="11" stroke-linecap="round">
    <path d="M158 196 H226"></path><path d="M158 230 H224"></path><path d="M158 264 H220"></path>
  </g>
  <path d="M306 282 v62 l22 -18 l22 18 v-62 z" fill="#FF7A2F"></path>
</svg>